<?xml version="1.0" encoding="UTF-8"?>
<!-- Generated by Pixelmator Pro 3.6.14 -->
<svg width="422" height="175" viewBox="0 0 422 175" xmlns="http://www.w3.org/2000/svg">
    <path id="Shape-copy" fill="#ffffff" fill-rule="evenodd" stroke="none" d="M 213 174.883911 C 209.974976 174.83728 205.810669 174.40094 203.745972 173.914307 C 201.681152 173.427734 197.767151 171.902222 195.048157 170.524414 C 192.329102 169.146545 188.168396 166.153748 185.802185 163.873779 C 183.435974 161.59375 182.018066 159.541748 182.651306 159.313721 C 183.284546 159.085693 187.533997 159.655212 192.094543 160.579285 C 197.574707 161.689697 202.779419 162.075867 207.443237 161.718018 C 211.324463 161.420227 217.043701 160.220886 220.152588 159.052917 C 223.261475 157.884888 227.823608 155.387939 230.290771 153.50415 C 232.757935 151.620361 236.381348 148.204102 238.342896 145.912537 C 240.304443 143.620911 243.731812 138.242981 245.959229 133.961487 C 248.186646 129.680054 251.62085 122.003662 253.59082 116.902893 C 255.62207 111.643311 256.991943 106.518677 256.755371 105.064331 C 256.525879 103.653992 252.962646 95.299988 248.837158 86.5 C 244.711548 77.700012 235.832031 59.474976 229.104858 46 C 222.377563 32.525024 215.240112 19.090942 213.243774 16.146606 C 211.247437 13.202209 207.364136 9.278015 204.614258 7.426147 C 199.61438 4.059082 199.61438 4.059082 203.557251 2.31897 C 206.130615 1.183228 210.130249 0.565186 215.072998 0.539429 C 221.729736 0.504761 223.158081 0.838806 226.877197 3.299988 C 229.204224 4.840027 232.771362 8.687866 234.804077 11.85083 C 236.836914 15.013794 242.296509 25.903748 246.936768 36.050842 C 251.577026 46.197876 258.182007 60.462524 261.614502 67.75 C 265.046997 75.037476 268.282471 81 268.804565 81 C 269.326538 81 270.659058 78.862488 271.765625 76.25 C 272.87207 73.637512 275.784546 65.875 278.237671 59 C 280.690796 52.125 284.144775 42 285.913208 36.5 C 287.681519 31 290.319092 23.584106 291.774292 20.020264 C 293.229614 16.456421 295.911377 11.890137 297.733643 9.873047 C 299.55603 7.855957 302.591309 5.472778 304.47876 4.577087 C 306.366211 3.681458 310.405029 2.487488 313.453857 1.923889 C 316.502808 1.360291 319.646973 1.262695 320.440918 1.707031 C 321.617188 2.365234 320.404053 6.032959 313.891846 21.507446 C 309.49585 31.953369 301.829834 49.950012 296.856201 61.5 C 291.882568 73.049988 284.438354 90.599976 280.313599 100.5 C 276.188721 110.400024 270.406616 123.564026 267.464355 129.753418 C 264.522217 135.942871 259.776001 144.390259 256.917358 148.525452 C 254.058716 152.660645 249.171875 158.396606 246.057739 161.271973 C 242.943726 164.1474 237.957397 167.819702 234.977051 169.432617 C 231.996704 171.045593 227.07019 172.95105 224.029175 173.666992 C 220.988159 174.382996 216.025024 174.930603 213 174.883911 Z M 0.854919 3.305725 C 12.204834 2.367676 17.383606 2.354248 19.68573 2.670715 C 23.87146 3.246094 23.87146 3.246094 24.198914 40.873047 C 24.493774 74.765503 24.708923 78.920532 26.366638 82.737244 C 27.378845 85.067749 29.727966 88.309998 31.586914 89.942139 C 33.445862 91.574341 36.88678 93.492554 39.233398 94.204895 C 41.580017 94.917175 46.200012 95.492371 49.5 95.483093 C 52.864319 95.473633 57.603943 94.661926 60.28949 93.635315 C 62.923706 92.628296 66.475525 90.629333 68.182373 89.193054 C 69.889282 87.756836 72.342102 84.313354 73.633118 81.540894 C 75.951843 76.561462 75.980774 76.079285 76.003906 42 C 76.016785 23.025024 76.286377 6.534302 76.603088 5.354065 C 77.066895 3.625366 78.202515 3.0802 82.443787 2.550293 C 85.339539 2.188477 90.024292 2.199646 92.85437 2.575073 C 98 3.25769 98 3.25769 97.985229 36.378845 C 97.973633 62.398193 97.646301 70.875122 96.45874 75.913391 C 95.627258 79.440735 93.745422 84.534424 92.276855 87.232666 C 90.808289 89.930908 86.799072 94.765015 83.367554 97.975037 C 79.935974 101.18512 74.286987 105.206787 70.814148 106.91217 C 67.34137 108.617554 61.349976 110.677185 57.5 111.489075 C 53.650024 112.300964 47.125 112.943481 43 112.916809 C 38.875 112.890198 33.035889 112.206238 30.024231 111.396912 C 27.012573 110.587585 22.632568 108.802673 20.290955 107.430359 C 17.94928 106.058044 14.405029 103.262329 12.414734 101.217651 C 10.4245 99.172913 7.991638 95.924988 7.008362 94 C 6.025085 92.075012 4.411438 88.025024 3.422363 85 C 1.851379 80.194946 1.575562 74.686096 1.239563 41.402893 L 0.854919 3.305725 Z M 146.5 112.314636 C 143.200012 112.599487 138.376221 112.459534 135.780457 112.00354 C 133.184753 111.547607 128.645813 110.068848 125.69397 108.717468 C 122.742188 107.366028 118.639221 104.572571 116.576294 102.509644 C 114.513428 100.446716 111.917969 96.675659 110.808655 94.129456 C 109.380188 90.850708 108.783752 87.27594 108.764282 81.877258 C 108.742554 75.841064 109.252136 73.135437 111.212769 68.877258 C 112.574524 65.9198 115.652527 61.546631 118.052856 59.159119 C 120.453125 56.771667 124.987793 53.520569 128.129883 51.934448 C 131.271973 50.348328 137.140625 48.126038 141.171387 46.996033 C 145.519653 45.776978 154.91925 44.459229 164.284912 43.755737 C 179.051636 42.646545 180.104187 42.433044 180.602844 40.44635 C 180.895996 39.278381 180.825378 35.578918 180.445984 32.225464 C 180.066589 28.871948 178.899048 24.71875 177.85144 22.996094 C 176.717346 21.131287 174.080383 19.038391 171.334351 17.823669 C 167.426331 16.094971 165.178101 15.843811 156.611023 16.17865 C 148.416992 16.498962 145.44873 17.059998 140.954956 19.137756 C 137.905212 20.547913 132.560913 24.243774 129.078796 27.35083 C 125.59668 30.457886 122.354431 33 121.87384 33 C 121.39325 33 121 30.510559 121 27.467896 C 121 24.425232 121.607971 20.480713 122.351074 18.702271 C 123.094116 16.923828 125.232971 14.124634 127.104065 12.48175 C 128.975159 10.838928 133.213562 8.279724 136.522705 6.794678 C 139.831909 5.309631 145.005554 3.453796 148.019714 2.670593 C 151.033875 1.88739 156.650024 0.935608 160.5 0.555481 C 164.534485 0.157166 170.458496 0.340637 174.483521 0.988647 C 178.324402 1.607056 183.49939 3.009094 185.983521 4.104309 C 188.46759 5.199585 192.416809 7.972046 194.759583 10.265442 C 197.247559 12.700928 199.93512 16.736145 201.221436 19.96759 C 203.285339 25.152344 203.443909 27.353882 203.744141 55 C 203.920349 71.224976 204.532837 86.867004 205.105225 89.76001 C 205.677612 92.653015 207.235718 96.315125 208.567688 97.898071 C 209.948425 99.539001 212.918579 101.345703 215.477478 102.101318 C 219.965576 103.426453 219.965576 103.426453 217.409607 106.09436 C 216.003784 107.561707 212.985413 109.603271 210.702148 110.631165 C 208.056213 111.822266 204.292603 112.493286 200.323975 112.481567 C 195.696838 112.467834 193.378235 111.945618 191.298584 110.448914 C 189.759399 109.341125 186.888855 105.19928 184.919617 101.244812 C 181.339233 94.05481 181.339233 94.05481 177.919617 97.590698 C 176.038818 99.535461 172.225708 102.638611 169.446045 104.486633 C 166.666382 106.334656 161.71637 108.735413 158.446045 109.821655 C 155.17572 110.907959 149.799988 112.029785 146.5 112.314636 Z M 346.568481 111.967346 C 341.486816 111.946777 336.580322 111.271362 333.314331 110.142761 C 330.462158 109.157227 326.33606 107.164612 324.145142 105.714783 C 321.954346 104.264954 319.009277 101.567627 317.600586 99.720703 C 316.191772 97.873779 314.355347 94.4245 313.519653 92.055603 C 312.683838 89.686707 312 84.735291 312 81.052429 C 312 77.369568 312.699463 72.303589 313.554321 69.794739 C 314.40918 67.285889 316.747192 63.318787 318.75 60.978943 C 320.752808 58.63916 324.743408 55.220276 327.61792 53.381409 C 330.492432 51.542603 336.141846 48.94165 340.172119 47.601563 C 344.202515 46.261414 351.775024 44.694153 357 44.118774 C 362.224976 43.543335 370.031128 42.86261 374.346924 42.606018 C 378.66272 42.349487 382.406738 41.926636 382.666992 41.666382 C 382.927246 41.406067 383.130005 37.965271 383.117554 34.020142 C 383.10144 28.94519 382.562378 25.918945 381.274536 23.673584 C 380.273438 21.928101 377.561646 19.187653 374.977173 18.18512 C 370.869507 16.591736 369.428223 16.037445 360 16.231262 C 352.155762 16.392517 348.093994 17.706207 344.733398 19.228363 C 342.258423 20.349396 337.463623 23.245605 333.752441 26.394958 C 330.04126 29.544312 326.553833 31.842285 326.002441 31.501526 C 325.45105 31.160767 325.002563 29.221008 325.005615 27.190979 C 325.008667 25.16095 325.467529 21.856812 326.025391 19.84845 C 326.626587 17.684082 328.713623 14.68457 331.14978 12.483643 C 333.4104 10.441284 337.571167 7.712219 340.395874 6.419006 C 343.220581 5.125793 348.597168 3.265015 352.343872 2.283875 C 356.706421 1.141479 362.633911 0.514893 368.828003 0.541443 C 374.946167 0.567627 380.566406 1.207458 384.123901 2.282715 C 387.217163 3.217651 391.932007 5.448975 394.60144 7.241272 C 398.153931 9.626465 400.265259 12.088562 402.477539 16.425842 C 405.5 22.351685 405.5 22.351685 405.797607 54.425842 C 405.961182 72.06665 406.535522 88.167053 407.073853 90.204529 C 407.612183 92.242004 409.219238 95.295532 410.645142 96.990173 C 412.249756 98.897156 414.912231 100.519104 417.631958 101.246521 C 420.048706 101.892944 421.907715 102.74231 421.763062 103.134033 C 421.618408 103.525757 419.751953 105.229858 417.615356 106.920837 C 415.478882 108.611877 411.88208 110.493225 409.622681 111.101624 C 407.363159 111.710022 403.352783 112.000061 400.710571 111.746216 C 397.272949 111.415894 395.109497 110.520996 393.10437 108.599976 C 391.563232 107.123474 389.239502 103.571899 387.940674 100.707703 C 386.641724 97.843445 385.466309 95.330017 385.328491 95.122314 C 385.190674 94.914551 382.71814 96.866211 379.834106 99.45929 C 376.949951 102.052368 372.544922 105.209656 370.045044 106.475464 C 367.545288 107.741272 363.055786 109.502136 360.068481 110.388489 C 356.969238 111.308044 351.172485 111.985962 346.568481 111.967346 Z M 151.5 94.697266 C 156.68689 94.473206 160.730713 93.714233 163 92.538818 C 164.924988 91.541748 168.097961 89.470703 170.051025 87.936523 C 172.004089 86.402344 174.882996 82.79364 176.448547 79.917175 C 178.830261 75.54126 179.374878 73.161438 179.783813 65.343628 C 180.272522 56 180.272522 56 173.38623 56.019836 C 169.598816 56.030701 163.349976 56.48584 159.5 57.03125 C 155.650024 57.57666 150.323059 58.795837 147.662415 59.740479 C 145.00177 60.685181 141.005676 63.015198 138.782288 64.918335 C 136.558899 66.821472 134.123291 69.853943 133.369873 71.657166 C 132.616455 73.460388 132 77.390686 132 80.391174 C 132 84.859253 132.488708 86.427368 134.700439 89.055847 C 136.185669 90.820923 138.773132 92.890076 140.450439 93.653992 C 142.495483 94.585388 146.135132 94.929016 151.5 94.697266 Z M 352.146606 95 C 355.481689 95 360.147583 94.175842 363.0448 93.075012 C 365.831177 92.016235 370.011475 89.592651 372.334351 87.689209 C 374.657227 85.785767 377.873047 81.814575 379.480469 78.864197 C 381.918579 74.389465 382.4729 72.049072 382.823853 64.75 C 383.244629 56 383.244629 56 373.282227 56 C 366.565186 56 360.750854 56.657043 355.433472 58.017029 C 351.095825 59.126404 345.852661 61.155212 343.781982 62.525574 C 341.711304 63.895874 338.860718 66.764404 337.44751 68.899963 C 335.809204 71.37561 334.694336 74.725037 334.371338 78.141418 C 333.98291 82.251099 334.312988 84.309937 335.78772 86.975098 C 336.900024 88.985107 339.524292 91.409241 342.012573 92.725098 C 345.066162 94.339844 348.006958 95 352.146606 95 Z"/>
</svg>
