<?xml version="1.0" encoding="UTF-8"?>
<svg width="131" height="105" viewBox="0 0 131 105" xmlns="http://www.w3.org/2000/svg">
    <path id="Shape-copy-3" fill="currentColor" fill-rule="evenodd" stroke="none" d="M 23.009464 103.45929 C 19.404638 103.42524 15.42946 103.101761 14.175659 102.740509 C 12.921942 102.379295 12.007715 101.749214 12.143998 101.340363 C 12.28028 100.931473 13.460615 100.015022 14.767 99.303795 C 16.073385 98.592522 21.315952 96.493271 26.417204 94.638733 C 31.518454 92.784241 39.402138 89.842377 43.936539 88.101311 C 48.470936 86.360245 53.649429 84.496658 55.444336 83.960037 C 57.717949 83.280258 58.707741 83.216606 58.707741 83.750076 C 58.707741 84.171249 55.847984 87.327057 52.352688 90.763016 C 48.446781 94.602585 44.387402 97.859406 41.8195 99.213722 C 39.521481 100.42572 35.823814 101.890694 33.602531 102.469284 C 31.2162 103.09082 26.881907 103.495895 23.009464 103.45929 Z M 112.146088 103.483437 C 108.844269 103.461464 104.320694 102.886314 101.367256 102.1129 C 98.568138 101.379906 94.239876 99.66153 91.748795 98.294212 C 89.257721 96.926941 84.7463 94.07196 81.723335 91.949852 C 78.700378 89.827744 74.913139 86.886299 73.307182 85.413353 C 71.701233 83.940414 70.387299 82.115608 70.387299 81.358253 C 70.387299 80.159218 70.720329 80.029099 72.963669 80.35144 C 74.380676 80.555023 78.631691 81.812515 82.41037 83.145859 C 86.189049 84.479172 92.372345 86.853088 96.151024 88.421265 C 99.929703 89.989395 105.453728 92.559898 108.42662 94.133438 C 111.399513 95.706978 114.931877 97.943985 116.276337 99.10453 C 117.964897 100.562126 118.584 101.571243 118.278221 102.367935 C 117.911476 103.323761 116.861221 103.514763 112.146088 103.483437 Z M 112.639809 68.867798 C 102.822502 69.080399 98.540627 68.864311 91.868477 67.819633 C 87.24585 67.095871 79.516731 66.193085 74.692657 65.813507 C 69.092735 65.372833 61.202091 65.346878 52.867962 65.741676 C 45.688503 66.081757 35.486 66.680313 30.195883 67.071754 C 24.905766 67.463196 16.403734 67.781471 11.302484 67.778999 C 6.201232 67.77652 1.633789 67.524628 1.152481 67.219193 C 0.475009 66.789207 0.552501 66.421959 1.495997 65.592186 C 2.166256 65.002731 3.951267 63.900978 5.462705 63.143791 C 6.974144 62.386604 10.375006 61.096992 13.020065 60.278038 C 15.907331 59.384068 21.535933 58.489002 27.104237 58.038349 C 33.792656 57.49699 47.300163 57.493595 75.540039 58.026104 C 98.933121 58.467239 115.945732 59.067932 117.792557 59.518044 C 119.492943 59.932426 122.464241 60.756538 124.395348 61.349304 C 126.326454 61.942116 128.748016 63.207531 129.776718 64.161346 C 130.805328 65.115158 131.389465 66.139748 131.074799 66.438187 C 130.760132 66.736626 129.265961 67.345154 127.754532 67.790405 C 126.243088 68.235649 119.441452 68.720482 112.639809 68.867798 Z M 67.982681 42.060055 C 63.826099 42.187954 58.879498 42.041733 56.990158 41.735157 C 55.100819 41.428543 50.927128 40.649506 47.715218 40.003906 C 44.503307 39.358345 39.498585 38.234871 36.59354 37.507332 C 33.688412 36.779793 28.74181 35.304161 25.601017 34.228119 C 22.46014 33.152069 16.95331 30.882774 13.363582 29.185196 C 9.773852 27.487656 6.063859 25.4105 5.119189 24.569321 C 3.401607 23.039894 3.401607 23.039894 6.663 23.419258 C 8.456732 23.627922 12.939637 24.404861 16.624973 25.145821 C 20.31031 25.88678 26.726334 27.113823 30.882915 27.872604 C 35.039497 28.631386 41.995705 29.56398 46.341152 29.945023 C 50.6866 30.326073 57.952023 30.828804 62.48642 31.062164 C 67.020821 31.295525 75.52285 31.127998 81.379822 30.689842 C 87.236794 30.251724 96.975433 29.136345 103.021355 28.211258 C 109.067276 27.286171 116.178047 26.122566 118.823105 25.62545 C 121.468163 25.128372 123.914375 24.87841 124.259148 25.070045 C 124.603844 25.261681 124.269127 25.917931 123.515259 26.528397 C 122.761383 27.138855 120.005951 28.61956 117.392174 29.818848 C 114.778397 31.018097 109.857292 32.917244 106.456512 34.039124 C 103.055733 35.161003 94.708275 37.372391 87.906631 38.95327 C 78.339333 41.176945 73.829338 41.880203 67.982681 42.060055 Z M 65.777336 11.196465 C 63.933365 11.550293 63.229813 11.27739 61.483379 9.531006 C 60.21851 8.266129 59.394775 6.731796 59.394775 5.640739 C 59.394775 4.643906 60.14806 3.085754 61.081158 2.152695 C 62.369007 0.864807 63.493824 0.466354 65.84124 0.466354 C 67.719597 0.466354 69.334946 0.88623 69.99472 1.545967 C 70.588493 2.139786 71.074333 3.668373 71.074333 4.942848 C 71.074333 6.367401 70.478798 7.93679 69.528503 9.016693 C 68.678268 9.982834 66.990295 10.96373 65.777336 11.196465 Z"/>
</svg>
